<mxfile host="app.diagrams.net" modified="2021-11-30T13:05:05.051Z" agent="5.0 (Windows NT 10.0; Win64; x64) AppleWebKit/537.36 (KHTML, like Gecko) Chrome/96.0.4664.45 Safari/537.36" etag="H6ZRjtBxHO8xnqqifpcg" version="15.8.6" type="github">
  <diagram id="OGLd9Mso2qIfTk-mX1_M" name="Page-1">
    <mxGraphModel dx="1483" dy="876" grid="1" gridSize="10" guides="1" tooltips="1" connect="1" arrows="1" fold="1" page="1" pageScale="1" pageWidth="850" pageHeight="1100" math="0" shadow="0">
      <root>
        <mxCell id="0" />
        <mxCell id="1" parent="0" />
        <mxCell id="C-11Agn2nhLSvfXQkg4X-3" style="edgeStyle=orthogonalEdgeStyle;rounded=0;orthogonalLoop=1;jettySize=auto;html=1;exitX=0.5;exitY=1;exitDx=0;exitDy=0;fontSize=14;" edge="1" parent="1" source="C-11Agn2nhLSvfXQkg4X-1">
          <mxGeometry relative="1" as="geometry">
            <mxPoint x="158.5" y="510" as="targetPoint" />
            <Array as="points">
              <mxPoint x="158.5" y="450" />
              <mxPoint x="158.5" y="450" />
            </Array>
          </mxGeometry>
        </mxCell>
        <mxCell id="C-11Agn2nhLSvfXQkg4X-1" value="&lt;font style=&quot;font-size: 14px&quot;&gt;&lt;font color=&quot;#ff8000&quot;&gt;&lt;b&gt;Bước 2:&lt;/b&gt; &lt;/font&gt;Doanh nghiệp thông báo ZION &lt;br&gt;&lt;b&gt;trong vòng 1 tuần&lt;/b&gt; kể từ ngày phát sinh&amp;nbsp;&amp;nbsp;&lt;br&gt;&lt;/font&gt;" style="rounded=1;whiteSpace=wrap;html=1;" vertex="1" parent="1">
          <mxGeometry x="58.5" y="320" width="220" height="120" as="geometry" />
        </mxCell>
        <mxCell id="C-11Agn2nhLSvfXQkg4X-16" style="edgeStyle=orthogonalEdgeStyle;rounded=0;orthogonalLoop=1;jettySize=auto;html=1;exitX=1;exitY=0.5;exitDx=0;exitDy=0;entryX=0;entryY=0.5;entryDx=0;entryDy=0;fontSize=9;" edge="1" parent="1" source="C-11Agn2nhLSvfXQkg4X-4" target="C-11Agn2nhLSvfXQkg4X-8">
          <mxGeometry relative="1" as="geometry">
            <Array as="points">
              <mxPoint x="278.5" y="550" />
              <mxPoint x="598.5" y="550" />
            </Array>
          </mxGeometry>
        </mxCell>
        <mxCell id="C-11Agn2nhLSvfXQkg4X-18" value="&lt;font style=&quot;font-size: 15px&quot;&gt;&lt;b style=&quot;background-color: rgb(255 , 255 , 255)&quot;&gt;SỐ LIỆU ĐÚNG&lt;/b&gt;&lt;/font&gt;" style="edgeLabel;html=1;align=center;verticalAlign=middle;resizable=0;points=[];fontSize=9;" vertex="1" connectable="0" parent="C-11Agn2nhLSvfXQkg4X-16">
          <mxGeometry x="0.256" y="2" relative="1" as="geometry">
            <mxPoint x="-39" y="2" as="offset" />
          </mxGeometry>
        </mxCell>
        <mxCell id="C-11Agn2nhLSvfXQkg4X-4" value="&lt;b&gt;&lt;font color=&quot;#ff8000&quot;&gt;Bước 3: &lt;/font&gt;&lt;/b&gt;ZION kiểm tra&amp;nbsp;&lt;b&gt;trong vòng 2 ngày&lt;/b&gt; làm việc&lt;br&gt;&lt;i&gt;&lt;font style=&quot;font-size: 12px&quot;&gt;(hoạt động của xe, hệ thống, hoặc yêu cầu DNVT check camera,...)&lt;/font&gt;&lt;/i&gt;" style="rounded=1;whiteSpace=wrap;html=1;fontSize=14;" vertex="1" parent="1">
          <mxGeometry x="60" y="510" width="218.5" height="100" as="geometry" />
        </mxCell>
        <mxCell id="C-11Agn2nhLSvfXQkg4X-8" value="&lt;font style=&quot;font-size: 14px&quot;&gt;&lt;b&gt;&lt;font color=&quot;#ff8000&quot; style=&quot;font-size: 14px&quot;&gt;Bước 4:&lt;/font&gt;&lt;/b&gt; ZION phản hồi xác nhận số liệu trên Dashboard với doanh nghiệp&lt;/font&gt;" style="rounded=1;whiteSpace=wrap;html=1;fontSize=12;" vertex="1" parent="1">
          <mxGeometry x="610" y="505" width="210" height="90" as="geometry" />
        </mxCell>
        <mxCell id="C-11Agn2nhLSvfXQkg4X-9" value="&lt;font style=&quot;font-size: 12px&quot;&gt;&lt;span style=&quot;font-size: 14px&quot;&gt;&lt;font color=&quot;#ff8000&quot;&gt;&lt;b&gt;Bước 4: &lt;/b&gt;&lt;/font&gt;ZION sẽ xử lý lỗi &amp;amp; thanh toán&amp;nbsp;&lt;/span&gt;&lt;br&gt;&lt;span style=&quot;font-size: 14px&quot;&gt;phát sinh chênh lệch cho doanh nghiệp&lt;/span&gt;&lt;br&gt;&lt;span style=&quot;font-size: 14px&quot;&gt;vào ngày cuối cùng của tháng yêu cầu.&lt;/span&gt;&lt;br&gt;&lt;font style=&quot;font-size: 12px&quot;&gt;&lt;i&gt;(không tính T7, CN&lt;/i&gt;&lt;/font&gt;&lt;/font&gt;&lt;i&gt;&lt;font style=&quot;font-size: 12px&quot;&gt;)&lt;/font&gt;&lt;/i&gt;" style="rounded=1;whiteSpace=wrap;html=1;fontSize=12;" vertex="1" parent="1">
          <mxGeometry x="20" y="770" width="280" height="120" as="geometry" />
        </mxCell>
        <mxCell id="C-11Agn2nhLSvfXQkg4X-10" value="&lt;div style=&quot;text-align: center&quot;&gt;&lt;br&gt;&lt;/div&gt;" style="text;whiteSpace=wrap;html=1;fontSize=12;" vertex="1" parent="1">
          <mxGeometry x="313.5" y="470" width="60" height="30" as="geometry" />
        </mxCell>
        <mxCell id="C-11Agn2nhLSvfXQkg4X-19" style="edgeStyle=orthogonalEdgeStyle;rounded=0;orthogonalLoop=1;jettySize=auto;html=1;exitX=0.5;exitY=1;exitDx=0;exitDy=0;fontSize=14;entryX=0.5;entryY=0;entryDx=0;entryDy=0;" edge="1" parent="1" target="C-11Agn2nhLSvfXQkg4X-9">
          <mxGeometry relative="1" as="geometry">
            <mxPoint x="158" y="700" as="targetPoint" />
            <mxPoint x="158" y="610" as="sourcePoint" />
            <Array as="points">
              <mxPoint x="158.5" y="760" />
            </Array>
          </mxGeometry>
        </mxCell>
        <mxCell id="C-11Agn2nhLSvfXQkg4X-20" value="&lt;font style=&quot;font-size: 14px&quot;&gt;&lt;b style=&quot;background-color: rgb(255 , 255 , 255)&quot;&gt;SỐ LIỆU SAI&lt;/b&gt;&lt;/font&gt;" style="edgeLabel;html=1;align=center;verticalAlign=middle;resizable=0;points=[];fontSize=9;" vertex="1" connectable="0" parent="C-11Agn2nhLSvfXQkg4X-19">
          <mxGeometry x="-0.236" y="-1" relative="1" as="geometry">
            <mxPoint x="2" y="2" as="offset" />
          </mxGeometry>
        </mxCell>
        <mxCell id="C-11Agn2nhLSvfXQkg4X-21" value="&lt;span style=&quot;font-family: &amp;#34;helvetica&amp;#34; ; font-style: normal ; letter-spacing: normal ; text-align: center ; text-indent: 0px ; text-transform: none ; word-spacing: 0px ; background-color: rgb(248 , 249 , 250) ; display: inline ; float: none&quot;&gt;&lt;b&gt;&lt;font style=&quot;font-size: 19px&quot; color=&quot;#cc0000&quot;&gt;QUY TRÌNH XỬ LÝ LỖI ĐỐI SOÁT GIAO DỊCH&lt;/font&gt;&lt;/b&gt;&lt;/span&gt;" style="text;whiteSpace=wrap;html=1;fontSize=11;" vertex="1" parent="1">
          <mxGeometry x="200" y="60" width="420" height="40" as="geometry" />
        </mxCell>
        <mxCell id="C-11Agn2nhLSvfXQkg4X-24" style="edgeStyle=orthogonalEdgeStyle;rounded=0;orthogonalLoop=1;jettySize=auto;html=1;fontSize=12;fontColor=#000000;exitX=0.46;exitY=1.038;exitDx=0;exitDy=0;exitPerimeter=0;" edge="1" parent="1" source="C-11Agn2nhLSvfXQkg4X-22">
          <mxGeometry relative="1" as="geometry">
            <mxPoint x="160" y="320" as="targetPoint" />
          </mxGeometry>
        </mxCell>
        <mxCell id="C-11Agn2nhLSvfXQkg4X-22" value="&lt;font style=&quot;font-size: 14px&quot;&gt;&lt;font style=&quot;font-size: 14px&quot; color=&quot;#ff8000&quot;&gt;&lt;b&gt;Bước 1&lt;/b&gt;:&lt;/font&gt;&lt;font color=&quot;#ff9933&quot; style=&quot;font-size: 14px&quot;&gt; &lt;/font&gt;&lt;font color=&quot;#000000&quot; style=&quot;font-size: 14px&quot;&gt;Phát sinh lỗi sản lượng&lt;/font&gt;&lt;br&gt;&lt;font color=&quot;#000000&quot; style=&quot;font-size: 14px&quot;&gt;(Ví dụ: sai số liệu báo cáo trên hệ thống,...)&lt;/font&gt;&lt;/font&gt;" style="rounded=1;whiteSpace=wrap;html=1;fontSize=12;fontColor=#FF0080;" vertex="1" parent="1">
          <mxGeometry x="58.5" y="140" width="220" height="90" as="geometry" />
        </mxCell>
        <mxCell id="C-11Agn2nhLSvfXQkg4X-25" value="&lt;i&gt;&lt;span style=&quot;color: rgb(0 , 0 , 0) ; font-family: &amp;#34;helvetica&amp;#34; ; font-size: 11px ; font-weight: 400 ; letter-spacing: normal ; text-align: center ; text-indent: 0px ; text-transform: none ; word-spacing: 0px ; background-color: rgb(255 , 255 , 255) ; display: inline ; float: none&quot;&gt;Nếu số liệu phát sinh thực tế từ&lt;/span&gt;&lt;br style=&quot;color: rgb(0 , 0 , 0) ; font-family: &amp;#34;helvetica&amp;#34; ; font-size: 11px ; font-weight: 400 ; letter-spacing: normal ; text-align: center ; text-indent: 0px ; text-transform: none ; word-spacing: 0px ; background-color: rgb(255 , 255 , 255)&quot;&gt;&lt;span style=&quot;color: rgb(0 , 0 , 0) ; font-family: &amp;#34;helvetica&amp;#34; ; font-size: 11px ; font-weight: 400 ; letter-spacing: normal ; text-align: center ; text-indent: 0px ; text-transform: none ; word-spacing: 0px ; background-color: rgb(255 , 255 , 255) ; display: inline ; float: none&quot;&gt;&amp;nbsp;khách hàng, nhân viên doanh&lt;/span&gt;&lt;br style=&quot;color: rgb(0 , 0 , 0) ; font-family: &amp;#34;helvetica&amp;#34; ; font-size: 11px ; font-weight: 400 ; letter-spacing: normal ; text-align: center ; text-indent: 0px ; text-transform: none ; word-spacing: 0px ; background-color: rgb(255 , 255 , 255)&quot;&gt;&lt;span style=&quot;color: rgb(0 , 0 , 0) ; font-family: &amp;#34;helvetica&amp;#34; ; font-size: 11px ; font-weight: 400 ; letter-spacing: normal ; text-align: center ; text-indent: 0px ; text-transform: none ; word-spacing: 0px ; background-color: rgb(255 , 255 , 255) ; display: inline ; float: none&quot;&gt;nghiệp&amp;nbsp;trên xe&lt;/span&gt;&lt;/i&gt;" style="text;whiteSpace=wrap;html=1;fontSize=14;fontColor=#FF8000;" vertex="1" parent="1">
          <mxGeometry x="373.5" y="560" width="170" height="70" as="geometry" />
        </mxCell>
        <mxCell id="C-11Agn2nhLSvfXQkg4X-29" value="&lt;span style=&quot;color: rgb(0 , 0 , 0) ; font-family: &amp;#34;helvetica&amp;#34; ; font-size: 11px ; font-weight: 400 ; letter-spacing: normal ; text-align: center ; text-indent: 0px ; text-transform: none ; word-spacing: 0px ; background-color: rgb(255 , 255 , 255) ; display: inline ; float: none&quot;&gt;&lt;i&gt;Nếu số liệu phát sinh từ phía ZION&lt;/i&gt;&lt;/span&gt;" style="text;whiteSpace=wrap;html=1;fontSize=14;fontColor=#FF8000;" vertex="1" parent="1">
          <mxGeometry x="163.5" y="680" width="80" height="50" as="geometry" />
        </mxCell>
      </root>
    </mxGraphModel>
  </diagram>
</mxfile>
